<svg xmlns="http://www.w3.org/2000/svg" viewBox="0 0 326 58" fill="#FF6501">
<path d="M91.267,18.097c-1.737-2.114-4.121-3.17-7.15-3.17c-3.212,0-5.787,1.233-7.729,3.699
	c-1.941,2.466-2.912,5.763-2.912,9.892c0,4.375,0.987,7.798,2.961,10.271c1.974,2.475,4.519,3.711,7.631,3.711
	c2.866,0,5.161-0.959,6.881-2.875v1.795c0,2.08-0.573,3.656-1.72,4.729c-1.146,1.074-2.712,1.609-4.693,1.609
	c-2.688,0-4.949-1.09-6.783-3.27l-2.826,3.588c0.966,1.311,2.379,2.371,4.238,3.182c1.86,0.813,3.765,1.219,5.715,1.219
	c3.686,0,6.615-1.008,8.785-3.023c2.17-2.014,3.256-4.766,3.256-8.256V15.419h-5.383L91.267,18.097L91.267,18.097z M90.948,34.537
	c-1.163,2.064-2.948,3.098-5.356,3.098c-1.934,0-3.445-0.768-4.534-2.299s-1.634-3.633-1.634-6.303c0-3.03,0.545-5.324,1.634-6.881
	c1.089-1.556,2.616-2.334,4.583-2.334c2.408,0,4.178,1.007,5.308,3.023V34.537z M108.887,18.392l-0.147-2.974h-5.701v26.59h5.973
	V23.823c0.949-2.097,2.792-3.146,5.529-3.146c0.834,0,1.646,0.066,2.433,0.196l0.024-5.603c-0.558-0.229-1.262-0.344-2.113-0.344
	C112.328,14.927,110.33,16.082,108.887,18.392z M139.815,18.392c-2.235-2.31-5.149-3.465-8.737-3.465
	c-2.425,0-4.57,0.562-6.438,1.684c-1.868,1.123-3.318,2.728-4.35,4.817c-1.033,2.089-1.549,4.436-1.549,7.041v0.295
	c0,4.162,1.127,7.49,3.379,9.988c2.254,2.5,5.256,3.748,9.008,3.748c2.457,0,4.623-0.564,6.5-1.695
	c1.875-1.131,3.316-2.729,4.324-4.793c1.008-2.063,1.512-4.406,1.512-7.027l-0.023-1.401
	C143.258,23.766,142.05,20.702,139.815,18.392z M135.833,35.373c-1.123,1.572-2.69,2.359-4.705,2.359
	c-2.016,0-3.588-0.773-4.719-2.324c-1.131-1.547-1.695-3.688-1.695-6.424c0-3.081,0.572-5.396,1.72-6.942
	c1.146-1.549,2.694-2.322,4.646-2.322c1.981,0,3.551,0.786,4.705,2.359c1.155,1.572,1.732,3.702,1.732,6.39
	C137.516,31.5,136.957,33.801,135.833,35.373z M154.965,21.82c1.047-1.4,2.539-2.101,4.473-2.101c1.506,0,2.748,0.491,3.724,1.475
	c0.975,0.982,1.494,2.236,1.561,3.76h5.627c-0.098-2.998-1.143-5.419-3.133-7.262c-1.99-1.843-4.568-2.765-7.73-2.765
	c-3.734,0-6.684,1.217-8.848,3.649c-2.162,2.433-3.244,5.673-3.244,9.719v0.614c0,4.242,1.09,7.57,3.271,9.979
	c2.178,2.408,5.127,3.613,8.846,3.613c1.918,0,3.703-0.418,5.357-1.256c1.654-0.834,2.965-1.969,3.932-3.402
	s1.482-2.977,1.549-4.631h-5.627c-0.064,1.275-0.59,2.35-1.574,3.219c-0.982,0.869-2.218,1.303-3.708,1.303
	c-1.967,0-3.471-0.709-4.51-2.127c-1.041-1.416-1.561-3.564-1.561-6.449v-0.959C153.383,25.346,153.918,23.221,154.965,21.82z
	 M185.881,14.927c-2.277,0-4.342,0.582-6.193,1.745s-3.287,2.789-4.313,4.878c-1.023,2.088-1.535,4.46-1.535,7.114V29.4
	c0,3.965,1.174,7.139,3.523,9.521c2.352,2.383,5.422,3.576,9.203,3.576c2.213,0,4.207-0.438,5.984-1.314s3.199-2.109,4.264-3.699
	l-3.219-3.07c-1.721,2.213-3.949,3.316-6.686,3.316c-1.949,0-3.566-0.639-4.852-1.916c-1.287-1.277-2.02-3.014-2.201-5.211h17.375
	v-2.408c0-4.227-0.986-7.495-2.961-9.805C192.299,16.082,189.502,14.927,185.881,14.927L185.881,14.927z M191.336,26.231h-11.377
	c0.275-2.047,0.922-3.645,1.928-4.792c1.008-1.146,2.332-1.72,3.969-1.72c1.656,0,2.949,0.512,3.883,1.536
	c0.936,1.023,1.467,2.535,1.598,4.533V26.231L191.336,26.231z M207.703,18.392l-0.146-2.973h-5.701V42.01h5.971V23.823
	c0.949-2.097,2.793-3.146,5.529-3.146c0.836,0,1.646,0.066,2.434,0.196l0.023-5.603c-0.557-0.229-1.262-0.344-2.113-0.344
	C211.145,14.927,209.145,16.082,207.703,18.392L207.703,18.392z M230.115,14.927c-2.277,0-4.342,0.582-6.193,1.745
	s-3.287,2.789-4.313,4.878c-1.023,2.088-1.535,4.46-1.535,7.114V29.4c0,3.965,1.176,7.139,3.525,9.521
	c2.352,2.385,5.42,3.576,9.205,3.576c2.211,0,4.205-0.438,5.982-1.314c1.775-0.877,3.197-2.109,4.264-3.699l-3.219-3.07
	c-1.723,2.213-3.949,3.316-6.686,3.316c-1.951,0-3.566-0.639-4.854-1.916s-2.02-3.014-2.199-5.211h17.373v-2.408
	c0-4.227-0.986-7.495-2.961-9.805C236.533,16.082,233.736,14.927,230.115,14.927L230.115,14.927z M235.57,26.231h-11.377
	c0.277-2.047,0.922-3.645,1.93-4.792c1.006-1.146,2.33-1.72,3.969-1.72c1.654,0,2.947,0.512,3.883,1.536
	c0.936,1.023,1.465,2.535,1.596,4.533V26.231L235.57,26.231z M262.309,17.876c-1.736-1.966-4.014-2.949-6.832-2.949
	c-3.195,0-5.742,1.241-7.643,3.723s-2.854,5.771-2.854,9.867c0,4.309,0.963,7.715,2.891,10.223c1.924,2.506,4.441,3.76,7.557,3.76
	c2.979,0,5.365-1.08,7.15-3.244l0.295,2.754h5.404V4.262h-5.971v13.614H262.309z M262.309,34.365c-1.131,2.18-2.916,3.27-5.357,3.27
	c-1.916,0-3.396-0.758-4.436-2.273c-1.041-1.516-1.561-3.625-1.561-6.328c0-3.08,0.521-5.385,1.57-6.917
	c1.051-1.531,2.539-2.297,4.475-2.297c2.439,0,4.211,1.065,5.309,3.195V34.365z M288.947,15.419h5.973V42.01h-5.973V15.419z
	 M314.873,14.927c-3.193,0-5.773,1.188-7.74,3.563l-0.172-3.072h-5.627v26.59h5.971V23.086c1.18-2.179,2.975-3.268,5.383-3.268
	c1.654,0,2.846,0.406,3.574,1.216c0.73,0.811,1.094,2.061,1.094,3.748V42.01h5.973V24.437
	C323.229,18.097,320.41,14.927,314.873,14.927z M28.784,17.004c-1.868,0-3.32,0.739-4.354,2.218
	c-1.035,1.479-1.554,3.659-1.554,6.538c0,2.539,0.519,4.535,1.554,5.99c1.035,1.455,2.47,2.184,4.308,2.184
	c2.288,0,3.985-0.98,5.09-2.943V19.876C32.752,17.961,31.071,17.004,28.784,17.004z"/>
<path d="M29.113,0.774C12.95,0.569,0.506,13.568,0.479,28.93c-0.028,15.85,12.855,28.352,28.204,28.299
	c15.377,0.084,28.164-12.355,28.271-28.004C57.064,13.653,44.664,0.971,29.113,0.774z M39.502,37.318
	c0,3.316-1.032,5.932-3.094,7.846s-4.846,2.871-8.348,2.871c-1.853,0-3.663-0.385-5.429-1.154c-1.768-0.771-3.109-1.779-4.028-3.023
	l2.685-3.408c1.744,2.068,3.892,3.105,6.445,3.105c1.883,0,3.37-0.512,4.46-1.529c1.088-1.021,1.633-2.52,1.633-4.496v-1.705
	c-1.633,1.822-3.813,2.732-6.538,2.732c-2.958,0-5.375-1.176-7.25-3.525c-1.875-2.352-2.813-5.604-2.813-9.76
	c0-3.924,0.922-7.056,2.768-9.399c1.844-2.342,4.292-3.514,7.343-3.514c2.88,0,5.145,1.004,6.795,3.012l0.257-2.545h5.114V37.318
	L39.502,37.318z"/>
<circle cx="278.246" cy="38.792" r="3.708"/>
<circle cx="291.934" cy="8.488" r="3.709"/>
</svg>
