<svg xmlns="http://www.w3.org/2000/svg" viewBox="0 0 100 100" fill="#fff"><path d="M50.179 28.736c-3.307 0-5.878 1.308-7.709 3.927-1.833 2.618-2.75 6.477-2.75 11.574 0 4.494.917 8.029 2.75 10.603 1.832 2.579 4.374 3.868 7.625 3.868 4.051 0 7.057-1.737 9.011-5.21V33.82c-1.902-3.389-4.877-5.084-8.927-5.084z"/><path d="M50.761.004C22.147-.358.119 22.652.071 49.849c-.05 28.059 22.756 50.192 49.93 50.099 27.222.147 49.86-21.874 50.052-49.577C100.245 22.805 78.291.353 50.761.004zm18.392 64.697c0 5.869-1.826 10.499-5.477 13.888-3.652 3.39-8.579 5.085-14.78 5.085-3.28 0-6.485-.684-9.61-2.048-3.13-1.363-5.505-3.147-7.132-5.352l4.754-6.035c3.086 3.664 6.889 5.498 11.41 5.498 3.332 0 5.966-.903 7.896-2.707 1.927-1.807 2.892-4.458 2.892-7.96v-3.016c-2.892 3.223-6.751 4.837-11.574 4.837-5.237 0-9.515-2.083-12.836-6.242-3.319-4.162-4.98-9.921-4.98-17.279 0-6.947 1.632-12.492 4.898-16.64 3.267-4.146 7.598-6.22 13.002-6.22 5.098 0 9.108 1.777 12.027 5.333l.457-4.506h9.053v43.364z"/></svg>