<svg xmlns="http://www.w3.org/2000/svg" viewBox="0 0 750 500"><g id="freepik--background-complete--inject-3"><polygon points="666.95 150.27 657.38 196.62 651.22 190.61 640.74 198.09 632.73 188.14 614.77 201.2 599.42 175.53 582.3 185.56 575.51 176.2 553.77 188.45 547.23 174.44 562.47 100.63 644.17 117.5 666.95 150.27" style="fill:#b2bbdb36"/><polygon points="644.17 117.5 666.95 150.27 638.61 144.42 644.17 117.5" style="fill:#b2bbdb69"/><polygon points="655.34 205.88 641.31 273.88 531.26 251.16 545.19 183.71 551.73 197.71 573.48 185.46 580.26 194.82 597.39 184.8 612.73 210.47 630.7 197.41 638.7 207.35 649.19 199.88 655.34 205.88" style="fill:#b2bbdb36"/><polygon points="497.83 197.91 385.68 204.85 376.77 60.89 460.05 55.73 490.62 81.38 497.83 197.91" style="fill:#b2bbdb36"/><polygon points="460.05 55.73 490.62 81.38 461.74 83.17 460.05 55.73" style="fill:#b2bbdb69"/><path d="M429,152.6l-.44-3.25c-1.13-6.73.71-14.26,6.56-22.13,5.28-7,8.14-12,7.82-17.68-.36-6.4-4.61-10.44-12.52-10.12a22.31,22.31,0,0,0-12.45,4.6l-3.45-7.73c4-3.25,11-5.65,17.65-6,14.43-.8,21.45,7.74,22,17.27.48,8.53-3.94,14.94-9.56,22.43-5.16,6.83-6.85,12.46-6.12,18.83l.31,3.26Zm-1.78,17.71c-.26-4.64,2.69-8.08,7.08-8.32s7.59,2.84,7.85,7.49c.24,4.39-2.45,7.93-7.09,8.19C430.63,177.92,427.43,174.7,427.18,170.31Z" style="fill: #b2bbdb69;"/><path d="M148.48,128.11,137.2,123l-1.57,3.45a3,3,0,0,1-2.57,1.72,14.48,14.48,0,0,0-1.85.18,3,3,0,0,1-2.85-1.18l-2.21-3.09-10.07,7.22,2.21,3.09a3,3,0,0,1,.2,3.07,18.29,18.29,0,0,0-.77,1.69,3,3,0,0,1-2.45,1.89l-3.77.37,1.21,12.33,3.79-.38a3,3,0,0,1,2.77,1.38c.16.26.33.51.51.76s.36.49.55.73a2.94,2.94,0,0,1,.42,3.05l-1.58,3.48,11.29,5.12,1.57-3.47a3,3,0,0,1,2.58-1.71,16.19,16.19,0,0,0,1.83-.18,3,3,0,0,1,2.85,1.18l2.21,3.09,10.08-7.22-2.21-3.09a2.91,2.91,0,0,1-.2-3.07,17.94,17.94,0,0,0,.75-1.68,2.94,2.94,0,0,1,2.45-1.89l3.79-.38-1.22-12.33-3.79.37a2.94,2.94,0,0,1-2.75-1.37c-.17-.26-.34-.51-.52-.76s-.36-.5-.55-.73a3,3,0,0,1-.42-3.07Zm-6.4,11.41a10.15,10.15,0,1,1-14.16-2.34A10.15,10.15,0,0,1,142.08,139.52Z" style="fill:#b2bbdb36"/><path d="M658.38,291.71l-7.52,4.34,1.33,2.3a2,2,0,0,1-.07,2.17c-.23.36-.45.73-.65,1.12a2,2,0,0,1-1.83,1.14H647v8.69h2.66a2,2,0,0,1,1.83,1.14c.2.39.42.76.65,1.12a2,2,0,0,1,.07,2.17l-1.33,2.3,7.52,4.34,1.34-2.31a2.05,2.05,0,0,1,1.91-1h1.28a2.06,2.06,0,0,1,1.91,1l1.34,2.32,7.51-4.34-1.33-2.31a2.05,2.05,0,0,1,.08-2.16c.23-.36.45-.74.65-1.12a2,2,0,0,1,1.83-1.14h2.66v-8.69H674.9a2,2,0,0,1-1.83-1.14c-.2-.38-.42-.76-.65-1.12a2.05,2.05,0,0,1-.08-2.16l1.33-2.31-7.51-4.34L664.82,294a2.05,2.05,0,0,1-1.91,1l-.64,0-.64,0a2.08,2.08,0,0,1-1.92-1Zm3.89,8.3a7.12,7.12,0,1,1-7.11,7.11A7.11,7.11,0,0,1,662.27,300Z" style="fill:#b2bbdb36"/><path d="M171.3,91.16l-6.89,5.28L166,98.55a2,2,0,0,1,.21,2.15,10.47,10.47,0,0,0-.5,1.2,2.05,2.05,0,0,1-1.67,1.37l-2.64.34,1.12,8.61,2.64-.34a2.06,2.06,0,0,1,2,.9,11.14,11.14,0,0,0,.78,1,2,2,0,0,1,.36,2.13l-1,2.46,8,3.33,1-2.46a2.05,2.05,0,0,1,1.77-1.25l.64-.07.63-.1a2.06,2.06,0,0,1,2,.75l1.63,2.13,6.89-5.28-1.61-2.11a2.06,2.06,0,0,1-.21-2.16,11.12,11.12,0,0,0,.5-1.19,2.05,2.05,0,0,1,1.67-1.37l2.64-.34-1.12-8.61-2.64.34a2.06,2.06,0,0,1-2-.89c-.25-.36-.51-.7-.79-1A2.07,2.07,0,0,1,186,96l1-2.46-8-3.33-1,2.46a2.07,2.07,0,0,1-1.77,1.25l-.64.06L175,94a2.06,2.06,0,0,1-2-.75Zm4.93,7.73a7.11,7.11,0,1,1-6.14,8A7.11,7.11,0,0,1,176.23,98.89Z" style="fill:#b2bbdb36"/></g><g id="freepik--Shadow--inject-3"><ellipse cx="375" cy="425.29" rx="286.74" ry="31.42" style="fill:#b2bbdb36"/></g><g id="freepik--Folder--inject-3"><polygon points="576.32 432.05 271.64 432.05 315.69 182.2 620.37 182.2 576.32 432.05" style="fill:#27EFFF"/><polygon points="419.97 156.32 320.26 156.32 315.69 182.2 422.4 182.2 419.97 156.32" style="fill:#27EFFF"/><g style="opacity:0.1"><polygon points="576.32 432.05 271.64 432.05 315.69 182.2 620.37 182.2 576.32 432.05"/><polygon points="419.97 156.32 320.26 156.32 315.69 182.2 422.4 182.2 419.97 156.32"/></g><polygon points="575.87 432.05 270.54 432.05 227.18 191.27 532.52 191.27 575.87 432.05" style="fill:#27EFFF"/><circle cx="332.99" cy="325.77" r="12.69" style="fill:#263238"/><circle cx="433.31" cy="325.77" r="12.69" style="fill:#263238"/><path d="M401.38,340.49l-.7-1.33c-.06-.12-6.62-12.24-19.81-12.24-12,0-15,11.41-15.08,11.9l-.36,1.45-2.91-.7.35-1.46c0-.14,3.58-14.19,18-14.19,15,0,22.17,13.28,22.47,13.85l.7,1.32Z" style="fill:#263238"/></g></svg>