<svg xmlns="http://www.w3.org/2000/svg" viewBox="0 0 200 180">
<path fill="#b2bbdb69" d="M157.085,87.608c0-11.217-9.094-20.309-20.311-20.309c-2.741,0-5.352,0.545-7.737,1.529
	c-2.256-18.878-18.313-33.518-37.8-33.518c-21.032,0-38.082,17.05-38.082,38.082c0,0.821,0.035,1.632,0.086,2.439
	c-4.58,1.947-7.791,6.485-7.792,11.775h-3.116v0.002c0,0,0,0-0.001,0c-14.021,0-25.388,11.368-25.388,25.389
	c0,14.021,11.367,25.387,25.388,25.387c0,0,0,0,0.001,0v0.002h114.75v-0.002c0.001,0,0.001,0,0.001,0
	c14.021,0,25.388-11.366,25.388-25.387C182.473,98.976,171.106,87.608,157.085,87.608z"/>
<path fill="#b2bbdb69" d="M151.697,153.166H47.72c-2.075,0-3.756-1.68-3.756-3.755l0,0c0-2.075,1.681-3.756,3.756-3.756h103.977
	c2.074,0,3.756,1.681,3.756,3.756l0,0C155.453,151.486,153.771,153.166,151.697,153.166z"/>
<g>
	<path fill="#27EFFF" d="M135.093,145.655H47.72c-2.075,0-3.756,1.681-3.756,3.756s1.681,3.755,3.756,3.755h87.373
		c2.073,0,3.756-1.68,3.756-3.755S137.166,145.655,135.093,145.655z"/>
	<path fill="#27EFFF" d="M77.222,106.69h9.215v31.695h26.543V106.69h9.215c1.408,0,2.174-1.647,1.265-2.725l-22.486-26.639
		c-0.662-0.784-1.869-0.784-2.531,0l-22.487,26.639C75.048,105.043,75.813,106.69,77.222,106.69z"/>
</g>
</svg>
